<?xml version="1.0" encoding="UTF-8"?>
<svg version="1.1" xmlns="http://www.w3.org/2000/svg" width="500" height="500">
<path d="M0 0 C165 0 330 0 500 0 C500 165 500 330 500 500 C335 500 170 500 0 500 C0 335 0 170 0 0 Z " fill="#FEFEFE" transform="translate(0,0)"/>
<path d="M0 0 C24.42 0 48.84 0 74 0 C74 53.46 74 106.92 74 162 C49.58 162 25.16 162 0 162 C0 108.54 0 55.08 0 0 Z " fill="#2B2B2B" transform="translate(48,164)"/>
<path d="M0 0 C7.76945681 6.57645001 11.67601621 15.78607302 13.03515625 25.72265625 C13.18585524 28.62435047 13.20234962 31.52227746 13.2121582 34.42749023 C13.2187294 35.28209335 13.2253006 36.13669647 13.23207092 37.01719666 C13.25171366 39.83438219 13.26344984 42.65151448 13.2734375 45.46875 C13.27751303 46.43745592 13.28158855 47.40616184 13.28578758 48.40422249 C13.30661555 53.53730172 13.32092825 58.67035452 13.33032227 63.8034668 C13.34134604 69.06848037 13.37570873 74.33306661 13.41549397 79.59792995 C13.44182297 83.67754321 13.45002872 87.75705741 13.45360374 91.83674812 C13.45843214 93.77534922 13.46993706 95.71394704 13.48864174 97.65246391 C13.63633294 113.98098172 12.75894285 129.01580551 1.2578125 141.6796875 C-7.58707663 150.27134872 -17.48532713 151.32441147 -29.32592773 151.19116211 C-39.6538541 150.836241 -46.41931555 148.16222354 -53.98828125 141.0078125 C-57.19114319 137.30489899 -59.13371873 133.2306066 -60.96484375 128.72265625 C-61.49271484 127.52189453 -61.49271484 127.52189453 -62.03125 126.296875 C-64.11532063 120.55042084 -64.11343435 114.80092219 -64.11010742 108.77075195 C-64.11346603 107.89021652 -64.11682465 107.00968109 -64.12028503 106.10246277 C-64.1297572 103.20110652 -64.13173647 100.29980824 -64.1328125 97.3984375 C-64.13602838 95.37070187 -64.1393927 93.34296647 -64.14289856 91.31523132 C-64.148881 87.0660244 -64.15073944 82.81683779 -64.15014648 78.56762695 C-64.15004508 73.14541703 -64.16367928 67.72333867 -64.18091869 62.30115986 C-64.19208606 58.11190707 -64.19406422 53.92268557 -64.19353676 49.73341942 C-64.19471043 47.73571508 -64.19909749 45.73800977 -64.20686913 43.74032021 C-64.31090439 14.2286212 -64.31090439 14.2286212 -54.58984375 2.97265625 C-53.72359375 2.23015625 -52.85734375 1.48765625 -51.96484375 0.72265625 C-51.46339844 0.29210937 -50.96195313 -0.1384375 -50.4453125 -0.58203125 C-36.62842132 -11.51905518 -13.84170498 -9.93575649 0 0 Z " fill="#BFBFBF" transform="translate(284.96484375,174.27734375)"/>
<path d="M0 0 C9.6735857 7.15460497 12.82897771 16.83238854 15.125 28.3125 C15.125 32.2725 15.125 36.2325 15.125 40.3125 C4.565 40.3125 -5.995 40.3125 -16.875 40.3125 C-17.205 35.6925 -17.535 31.0725 -17.875 26.3125 C-19.81231528 23.94839512 -19.81231528 23.94839512 -23.3125 24 C-26.7461143 23.99401584 -26.7461143 23.99401584 -28.6015625 25.5625 C-30.24225712 27.8171969 -30.14845208 28.88533443 -29.8125 31.625 C-29.73902344 32.36363281 -29.66554687 33.10226563 -29.58984375 33.86328125 C-27.73496452 40.21852319 -22.79875108 44.61603765 -18.16796875 49.07421875 C-16.84542121 50.37145744 -15.52316488 51.66899307 -14.20117188 52.96679688 C-12.13830897 54.98029379 -10.07239314 56.99042784 -8.00073242 58.99487305 C7.19155919 73.72574626 15.64786992 85.53778557 16.10058594 107.23925781 C16.24832421 119.78519184 14.1957694 133.818772 5.7890625 143.734375 C-3.85822605 152.88344677 -14.94493263 152.85002804 -27.51953125 152.62890625 C-33.55328837 152.379111 -38.57696906 151.27431434 -43.875 148.3125 C-44.86113281 147.80396484 -44.86113281 147.80396484 -45.8671875 147.28515625 C-52.85115539 143.07379364 -56.49134405 135.55395116 -58.53515625 127.89453125 C-60.2321987 120.76464927 -60.20973262 113.85377186 -60.0625 106.5625 C-60.000625 102.19 -59.93875 97.8175 -59.875 93.3125 C-49.975 93.3125 -40.075 93.3125 -29.875 93.3125 C-29.5 105.5625 -29.5 105.5625 -29.39697266 109.40722656 C-29.3613623 110.41237305 -29.32575195 111.41751953 -29.2890625 112.453125 C-29.24193115 113.99274902 -29.24193115 113.99274902 -29.19384766 115.56347656 C-28.87496849 118.31277167 -28.37215185 120.00192447 -26.875 122.3125 C-24.04616253 123.72691874 -22.00123255 123.63150332 -18.875 123.3125 C-16.47040751 120.99257626 -15.90682166 119.54012523 -15.44140625 116.2109375 C-15.4242499 100.73591185 -20.66841129 93.5506121 -31.35375977 82.82421875 C-33.02351259 81.18961001 -34.69672618 79.55852934 -36.37329102 77.9309082 C-59.56108315 55.38335788 -59.56108315 55.38335788 -60.2734375 39.19140625 C-60.28128459 37.41927099 -60.27333283 35.64699903 -60.25 33.875 C-60.26160156 32.99779297 -60.27320313 32.12058594 -60.28515625 31.21679688 C-60.23842407 20.64753447 -57.26821459 11.31997594 -50.16015625 3.40234375 C-37.24476424 -9.03763505 -14.93705565 -9.12129688 0 0 Z " fill="#BFBFBF" transform="translate(195.875,172.6875)"/>
<path d="M0 0 C20.46 0 40.92 0 62 0 C63 1 63 1 63.11352539 3.86743164 C63.10828857 5.11903076 63.10305176 6.37062988 63.09765625 7.66015625 C63.09515869 8.87582275 63.09266113 10.09148926 63.09008789 11.34399414 C63.08098389 12.90110107 63.07187988 14.45820801 63.0625 16.0625 C63.041875 20.991875 63.02125 25.92125 63 31 C52.77 31 42.54 31 32 31 C32 38.92 32 46.84 32 55 C41.57 55 51.14 55 61 55 C61 64.9 61 74.8 61 85 C51.1 85 41.2 85 31 85 C31 108.43 31 131.86 31 156 C20.77 156 10.54 156 0 156 C0 104.52 0 53.04 0 0 Z " fill="#C0C0C0" transform="translate(310,168)"/>
<path d="M0 0 C22.11 0 44.22 0 67 0 C67 9.57 67 19.14 67 29 C61.06 29 55.12 29 49 29 C49 70.58 49 112.16 49 155 C38.77 155 28.54 155 18 155 C18 113.42 18 71.84 18 29 C12.06 29 6.12 29 0 29 C0 19.43 0 9.86 0 0 Z " fill="#BFBFBF" transform="translate(378,169)"/>
<path d="M0 0 C3.4375 0.5625 3.4375 0.5625 5.12709045 2.04640198 C7.04709674 5.73297771 6.86336344 9.32226403 6.84155273 13.38256836 C6.84841599 14.27244949 6.85527924 15.16233063 6.86235046 16.07917786 C6.88064977 19.02039553 6.87677644 21.96108137 6.87109375 24.90234375 C6.87565411 26.94731317 6.88095925 28.99228106 6.88697815 31.0372467 C6.89591546 35.3236412 6.8934791 39.60984946 6.88354492 43.89624023 C6.87205572 49.38878941 6.89226305 54.88069566 6.92146206 60.37316036 C6.93980997 64.59652286 6.93953437 68.8197309 6.93382454 73.04312325 C6.93367115 75.06811996 6.93973034 77.09312702 6.95211601 79.11808586 C6.96699708 81.95014626 6.95637005 84.78101399 6.93920898 87.61303711 C6.95371094 88.86704819 6.95371094 88.86704819 6.96850586 90.14639282 C6.91818591 94.11295979 6.70779286 96.11975422 4.59364319 99.58277893 C2.4375 101.5625 2.4375 101.5625 -0.5625 102.1875 C-3.5625 101.5625 -3.5625 101.5625 -5.71765137 99.5760498 C-8.20639522 95.5107008 -8.12598164 92.39832273 -8.08007812 87.72070312 C-8.0870874 86.84042953 -8.09409668 85.96015594 -8.10131836 85.0532074 C-8.11889229 82.14973198 -8.10727774 79.24723496 -8.09375 76.34375 C-8.09644509 74.32262994 -8.10032765 72.30151114 -8.10534668 70.28039551 C-8.11124092 66.04699342 -8.10268104 61.81392919 -8.08398438 57.58056641 C-8.06119503 52.15639604 -8.07431848 46.73301736 -8.09827423 41.30887604 C-8.11273412 37.13610884 -8.1081253 32.96352909 -8.09776306 28.79075623 C-8.09509631 26.79088751 -8.0983637 24.79100174 -8.10768127 22.79115295 C-8.11784989 19.99507627 -8.10234144 17.2002784 -8.08007812 14.40429688 C-8.08817505 13.57921127 -8.09627197 12.75412567 -8.10461426 11.90403748 C-8.04689985 7.98793481 -7.81210033 5.97868014 -5.75280762 2.54504395 C-3.5625 0.5625 -3.5625 0.5625 0 0 Z " fill="#FEFEFE" transform="translate(259.5625,195.4375)"/>
</svg>
